<mxfile host="65bd71144e">
    <diagram id="8MXCeMSF8xFXixCwJtfb" name="Page-1">
        <mxGraphModel dx="2786" dy="1116" grid="1" gridSize="10" guides="1" tooltips="1" connect="1" arrows="1" fold="1" page="1" pageScale="1" pageWidth="850" pageHeight="1100" math="0" shadow="0">
            <root>
                <mxCell id="0"/>
                <mxCell id="1" parent="0"/>
                <mxCell id="2" value="" style="verticalLabelPosition=bottom;shadow=0;dashed=0;align=center;html=1;verticalAlign=top;shape=mxgraph.electrical.radio.aerial_-_antenna_2;fontSize=17;" parent="1" vertex="1">
                    <mxGeometry x="320" y="220" width="79" height="100" as="geometry"/>
                </mxCell>
                <mxCell id="4" style="edgeStyle=orthogonalEdgeStyle;html=1;entryX=0.5;entryY=1;entryDx=0;entryDy=0;entryPerimeter=0;fontSize=17;" parent="1" source="3" target="2" edge="1">
                    <mxGeometry relative="1" as="geometry"/>
                </mxCell>
                <mxCell id="3" value="OFDM" style="rounded=0;whiteSpace=wrap;html=1;fontSize=17;" parent="1" vertex="1">
                    <mxGeometry x="170" y="320" width="120" height="60" as="geometry"/>
                </mxCell>
                <mxCell id="8" value="" style="edgeStyle=orthogonalEdgeStyle;html=1;fontSize=17;" parent="1" source="5" target="7" edge="1">
                    <mxGeometry relative="1" as="geometry"/>
                </mxCell>
                <mxCell id="20" value="" style="edgeStyle=none;html=1;" edge="1" parent="1" source="5" target="19">
                    <mxGeometry relative="1" as="geometry"/>
                </mxCell>
                <mxCell id="5" value="Turbo coding" style="rounded=0;whiteSpace=wrap;html=1;fontSize=17;" parent="1" vertex="1">
                    <mxGeometry x="-210" y="320" width="120" height="60" as="geometry"/>
                </mxCell>
                <mxCell id="9" style="edgeStyle=orthogonalEdgeStyle;html=1;entryX=0;entryY=0.5;entryDx=0;entryDy=0;fontSize=17;" parent="1" source="7" target="3" edge="1">
                    <mxGeometry relative="1" as="geometry"/>
                </mxCell>
                <mxCell id="7" value="QAM&lt;br&gt;4/16/64" style="whiteSpace=wrap;html=1;rounded=0;fontSize=17;" parent="1" vertex="1">
                    <mxGeometry x="-19" y="320" width="120" height="60" as="geometry"/>
                </mxCell>
                <mxCell id="12" value="" style="edgeStyle=orthogonalEdgeStyle;html=1;exitX=0.5;exitY=1;exitDx=0;exitDy=0;exitPerimeter=0;fontSize=17;" parent="1" source="10" target="11" edge="1">
                    <mxGeometry relative="1" as="geometry"/>
                </mxCell>
                <mxCell id="10" value="" style="verticalLabelPosition=bottom;shadow=0;dashed=0;align=center;html=1;verticalAlign=top;shape=mxgraph.electrical.radio.aerial_-_antenna_2;fontSize=17;" parent="1" vertex="1">
                    <mxGeometry x="500" y="220" width="79" height="100" as="geometry"/>
                </mxCell>
                <mxCell id="14" value="" style="edgeStyle=orthogonalEdgeStyle;html=1;fontSize=17;" parent="1" source="11" target="13" edge="1">
                    <mxGeometry relative="1" as="geometry"/>
                </mxCell>
                <mxCell id="11" value="OFDM" style="whiteSpace=wrap;html=1;verticalAlign=middle;shadow=0;dashed=0;align=center;fontSize=17;" parent="1" vertex="1">
                    <mxGeometry x="610" y="320" width="120" height="60" as="geometry"/>
                </mxCell>
                <mxCell id="16" value="" style="edgeStyle=orthogonalEdgeStyle;html=1;fontSize=17;" parent="1" source="13" target="15" edge="1">
                    <mxGeometry relative="1" as="geometry"/>
                </mxCell>
                <mxCell id="13" value="QAM Demodulation" style="whiteSpace=wrap;html=1;verticalAlign=middle;shadow=0;dashed=0;fontSize=17;" parent="1" vertex="1">
                    <mxGeometry x="810" y="320" width="120" height="60" as="geometry"/>
                </mxCell>
                <mxCell id="22" value="" style="edgeStyle=none;html=1;" edge="1" parent="1" source="15" target="21">
                    <mxGeometry relative="1" as="geometry"/>
                </mxCell>
                <mxCell id="15" value="Turbo decoding" style="whiteSpace=wrap;html=1;verticalAlign=middle;shadow=0;dashed=0;fontSize=17;" parent="1" vertex="1">
                    <mxGeometry x="1010" y="320" width="120" height="60" as="geometry"/>
                </mxCell>
                <mxCell id="18" value="AWGN" style="text;html=1;strokeColor=none;fillColor=none;align=center;verticalAlign=middle;whiteSpace=wrap;rounded=0;fontSize=17;" parent="1" vertex="1">
                    <mxGeometry x="420" y="291" width="60" height="30" as="geometry"/>
                </mxCell>
                <mxCell id="19" value="bit sequence" style="whiteSpace=wrap;html=1;fontSize=17;rounded=0;" vertex="1" parent="1">
                    <mxGeometry x="-410" y="320" width="120" height="60" as="geometry"/>
                </mxCell>
                <mxCell id="21" value="bit sequence" style="whiteSpace=wrap;html=1;fontSize=17;shadow=0;dashed=0;" vertex="1" parent="1">
                    <mxGeometry x="1210" y="320" width="120" height="60" as="geometry"/>
                </mxCell>
            </root>
        </mxGraphModel>
    </diagram>
</mxfile>